<svg baseProfile="tiny" xmlns="http://www.w3.org/2000/svg" viewBox="0 0 650 650"><path d="M383.8 199.1c-18.9 0-28.2 11.9-31.4 16.1V203h-36.7v243.5h40.9V253.4c3.9-6.6 8.9-13.4 15.2-13.4 3.8 0 6 3.1 6 6.9v199.6h40.5V241.2c.2-26-12.8-42.1-34.5-42.1zm17.1 231.5h-6.3V247.9c0-14.6-4.3-24-17.7-24-16 0-28.1 17.1-38.2 33.5v173.1h-6.3V218.9h6.3v28.8c8.6-14.1 21.5-29.7 38.5-29.7 16.2 0 23.7 10.1 23.7 28.6v184zm-142.2-29.4c-.1 5.5-3.6 9.9-10 9.9-6.6 0-9.9-4.4-10-9.9V203.1H200v198.2c-.1 5.5-3.5 9.9-10 9.9-6.6 0-9.9-4.4-10-9.9V203.1h-40.9V399c0 32 19.9 51.5 46.9 51.5 20.2 0 31-9.6 33.3-12.5 2.3 2.9 12.9 12.5 33.5 12.5 28.3 0 46.7-21.6 46.7-51.5V203.1h-40.9v198.1zm17.1-1.4V219.9h6.3v181.6c0 20.3-13.3 32.4-31.9 32.4-14.4 0-26.5-9.8-30.9-19.4-5.4 11.5-18.2 19.4-30.9 19.4-19.9 0-31.8-12.8-31.8-33.2V219.9h6.3v179.8c0 17.3 9.7 27.9 26 27.9 15.6 0 27.2-11.5 27.3-27.9V219.9h6.2v179.8c.1 17.1 12.2 27.9 27.3 27.9 15.9 0 26.1-10.4 26.1-27.8zm322.6-200.7c-29.9 0-50.1 21.6-50.1 52.7v37h40.5v-41.3c.1-5.4 4.2-9.7 9.6-9.7 6.9 0 10.4 4.3 10.4 9.7v42.6c-38.2 22.4-61 45.5-61 88.3v17.7c0 37.4 16.8 54.3 41.9 54.3 17.9 0 25.8-10.1 28.1-14.2.3 2.6 1 7.7 1.5 10.2h29.4c0-2 .1-196.9.1-196.9.2-33.8-21.2-50.4-50.4-50.4zm34.1 231.5h-4.7c-.4-3.9-.7-8-.8-18-1.9 4.8-14.5 21.2-31.9 21.2-19.7 0-30.3-13.8-30.3-37.4v-19.9c0-32.3 14.9-52.7 61.4-78.3v-48.1c0-17.3-11.4-28.3-27.8-28.3-17.3 0-27.3 11.4-27.3 29.5V274h-6.3v-22.8c0-21.3 13.5-35.4 33.6-35.4 20.5 0 34.1 13.1 34.1 34.3v180.5zM489.2 203.1h-54.6v243.5h56.7c22.7 0 45-11.8 45-46v-48.2c0-23-11.8-29.3-17.1-31.9 5.7-3.2 17.1-8.1 17.1-31.9v-39.5c0-34.8-21.9-46-47.1-46zm30.8 90.4c0 20.6-14.8 26.1-21.5 28.3 7.7.7 21.5 7.3 21.5 28.3v49.4c0 16.5-8.6 31.5-30.6 31.5h-37.3V218.6h38.3c22 0 29.6 14.5 29.6 31.5v43.4zm-61.6 31V425h29.7c18.3 0 25.6-10.2 25.6-25.6v-47.8c0-17.7-10.1-27.1-29-27.1h-26.3zm38.6 26.4v46.5c0 7.9-3.9 12.1-10.9 12.1h-10.9v-71h10.7c7.5 0 11.1 4.4 11.1 12.4zm-7.2-126.8h-31.4v94.6h24.9c18.3 0 30.4-7.9 30.4-25.2V250c0-14.6-6.7-25.9-23.9-25.9zm7.2 68.3c0 8.3-5.7 12.7-13.1 12.7h-8.7V240h8.8c8.2 0 13.1 5.1 13.1 13v39.4zm74.1 84.1v19.9c0 18.1 7.1 31.5 24 31.5 14.8 0 26.9-13.2 31.1-27.2v-95.8c-47.6 27.1-55.1 46.4-55.1 71.6zm38-41.1v58.9c0 10.8-3.7 16-10.4 16s-9.9-4.3-9.9-13.4v-24.2c0-15.3 5.7-27.1 20.3-37.3z" fill="#F05623"/><path fill="#fff" d="M87.5 197.1H27.3C12.8 197.1 1 208.9 1 223.4v203.3c0 14.4 11.8 26.2 26.3 26.2h60.2c14.4 0 26.3-11.8 26.3-26.2V223.4c-.1-14.5-11.9-26.3-26.3-26.3"/><path fill="#F05623" d="M107.7 426.7V223.3c0-11-9-20-20-20H52.5c3.1 2.6 5.1 6.6 5.1 11 0 8-6.4 14.4-14.4 14.4h-.5c0 .5-.1 2.1-.2 3-.2 1.3-.6 2.1-.8 2.6-.1.2-.1.6 0 1 .5 2.2 3.5 12.6 3.9 14.1 1.2 4.1 2.3 9 2.3 12.6.5-3.8 3.8-9 11.1-9 1.2 0 2.4.2 2.8 1 .7.1 1.9.3 3.5 2 1.9 2 1.6 3.5 2 4.3.3.6 3 1.6 3 6.8 0 2.1.4 3.6.4 4.3 0 .9-.3 1.4-1.1 1.9-.5.3-.9.6-1.4.9-.7.4-1.1.7-1.1 1.5 0 .7.2 1.5.3 1.7.1.4.5.6.9.7 1.5 0 2.6-.1 4.3.1 1.8-1 3.5-2.2 7.1-2.1.9 0 2.5.2 3 .2.8-.7 2.4-1.6 4.1-1.7-2.3-4.9-2.2-9-4.3-14.3-1.1-2.7-2.3-5.8-2.6-6.6-.3-.7-.7-1.3-.7-1.3-.5-.4-1-1.1-1.5-1.8-.7-1.1-1-2.2-1.1-3.1 0-.2-.1-.3-.1-.4-.1-.9-1.2-2.7-1.7-4-.6-1.5-1.8-2.2-1.8-3.1 0-.5.5-.8 1.1-.8 1.1 0 1.9.8 2.5 2 .8 1.6 1.2 2.8 2 2.8.4 0 .8-.1 1.1-.3.6-.4 1.2-2.7 1.2-3.7.3-2.4.8-5.9 1.8-7.9.4-.8.8-1 1.2-1 .2 0 .6.2.6.5 0 .5-.3 1.2-.4 2-.1.4-.3 1.6-.5 2.7.4-1.2 1-2.3 1.2-2.7.3-.7 1.3-2.3 2.1-2.3.6 0 .8.4.8.6 0 .5-.9 2-.9 2.2-.1.2-.8 1.8-1.1 3.1.4-.5 1-1.4 1.9-1.4.4 0 .6.2.6.5 0 .2-.1.5-.3.9-.1.1-1.1 1.9-1.3 2.4-.2.5-.8 2.1-1.2 3.2.2-.1.3-.3.7-.3.3 0 .5.3.5.5 0 .5-.6 1.3-1.2 2.5l-.3 2.1c-.1.8-.2 2.3.1 3.9.1.9.5 1.7 1 2.6 2.1 4.5 6.6 9.3 9 14 1.8 3.4 3.3 7.2 3.3 10.5 0 .9-.3 1.3-1.1 2-1.1 1-5.3 4.3-7.9 5.5-2.5 1.1-8.2 2.7-9.4 3.5-1.3.8-3.4 3.7-3.4 3.7 1 3.6 1.4 5.8 1.5 7.8.1 2.1-1 5.2-1.6 7.6-.9 3.6-2.8 10.6-3.5 13.7-.6 3-1.2 6.1-1.2 9.9 0 1.7.1 3.6.5 5.6 4.6 4.9 14.2 17.1 14.2 21.4 0 1-.8 3.9-2.9 5.4-3.1 2.2-7.1 8.6-8.4 10.1-4.5 5.2-8.8 10-11.2 13.6.7.1 1 .5 1 .9 0 1.5-1.3 2-1.8 2.4-.5.4-.3 2.3 0 3 .4.9 0 1.6 0 1.6.6.5.2 1.6.2 1.6.5.1.5 2.1.5 2.1.1.8.9 2.9 1.7 4.3.2.5.3.9.3 1.3 0 1.2-1.2 1.8-2.8 1.8-6 0-12-7.7-11.4-8.4-6.9 8.4-18 18.7-18.4 19.2-.2.3-.6.7-.8 1 .4.2.7.9.7.9 1.6.6-.7 2.1-1.4 2.2-1.2.1-.8.3-1.4.8-.7.6-1.9 1.9-2.3 2.5-.6.8-.9 2.9-1.5 5-.7 2.5-1.6 4.1-1.6 6 0 .3.1 2.5.1 3.1 0 4.8-1.3 6.1-3.5 6.3 1.5.4 3.3.8 5.4.8h60.5c11.1-.1 20.1-9.1 20.1-20.1m-100.6 0V223.3c0-11 9-20 20-20H34c-3.1 2.6-5.1 6.6-5.1 11 0 2.3.5 4.5 1.5 6.4 0 1.6.3 3.5 1.2 6.1.1.4 3.2 4.2 3.5 6.4.1.7.4 3.1.7 4.5.7 4.3.5 10.6.4 16.3-.1 8.6 3.4 14.8 4.6 17.3-.3.6-1.3 1.9-3.4 1.5 0 .6-.2 1.3.8 2-.4.3-.9.1-1.5.1-.4 0-1.3.4-1.7 1.5.5.4.8.8.8 2 0 .9-.6 1.5-.6 2.7 0 1.7 1.3 2.7 3.4 2.7.4 0 1 0 1.4-.1.1 1.3 1.1 2.8 3.2 2.8.3 0 .6 0 1.1-.2-.2.9-.3 2.2-.3 3.6 0 9.1 2.9 15 5.2 26.7.1.3.3 1.3.3 1.6 0 .3 0 .4-.2.4-.3 0-1.1.3-1.1 1.5 0 .4.2.6.2.9 0 .3-.1.8-.2 1-1.2 2.9-7 6.1-7 15.5 0 5.9 1.7 9.9 8.1 18.1.1.8.4 2.4.4 3.1 0 3.7-1.3 6.6-1.3 8.6 0 .9.6 1.2 1.1 1.5-.1 4-1.6 12.6-2.2 15.2-4.8 1.7-7.7 5.2-10 9.6-.9 1.8-9.2 19.6-11.4 20.1-.3-.4-.9-.3-1.4-.3-5.9.6-9.7 1.6-9.7 4.7 0 1-.1 2.5.1 3.5.4 2.4 1.9 3.8 1.9 7.3 0 1.5-.7 3.3-.7 5.9 0 2.5 1 7.5 3.9 10-7.6-2.3-12.9-9.5-12.9-18.1"/></svg>